<svg width="40" height="40" viewBox="0 0 40 40" fill="none" xmlns="http://www.w3.org/2000/svg">
<path d="M16.6929 12.0054C16.6929 13.2486 16.199 14.4409 15.3199 15.3199C14.4409 16.199 13.2486 16.6929 12.0054 16.6929C10.7622 16.6929 9.56988 16.199 8.69081 15.3199C7.81173 14.4409 7.31787 13.2486 7.31787 12.0054C7.31787 10.7622 7.81173 9.56988 8.69081 8.69081C9.56988 7.81173 10.7622 7.31787 12.0054 7.31787C13.2486 7.31787 14.4409 7.81173 15.3199 8.69081C16.199 9.56988 16.6929 10.7622 16.6929 12.0054Z" fill="#00425A"/>
<path d="M21.3804 16.6929C20.1372 16.6929 18.9449 16.199 18.0658 15.3199C17.1867 14.4409 16.6929 13.2486 16.6929 12.0054C16.6929 10.7622 17.1867 9.56988 18.0658 8.69081C18.9449 7.81173 20.1372 7.31787 21.3804 7.31787C22.6236 7.31787 23.8159 7.81173 24.6949 8.69081C25.574 9.56988 26.0679 10.7622 26.0679 12.0054C26.0679 13.2486 25.574 14.4409 24.6949 15.3199C23.8159 16.199 22.6236 16.6929 21.3804 16.6929Z" fill="#00425A"/>
<path d="M21.3804 16.6929H22.1616C22.9196 16.6928 23.6517 16.9682 24.2217 17.4678C24.7918 17.9673 25.1608 18.6571 25.2601 19.4085L30.1194 17.2491C30.3573 17.1431 30.6179 17.0983 30.8775 17.1186C31.1371 17.139 31.3875 17.2239 31.6059 17.3656C31.8243 17.5074 32.0039 17.7015 32.1282 17.9303C32.2526 18.159 32.3178 18.4153 32.3179 18.6757V30.3351C32.3176 30.5953 32.2524 30.8513 32.1282 31.0799C32.0039 31.3085 31.8245 31.5024 31.6063 31.6441C31.3881 31.7859 31.1379 31.8708 30.8786 31.8913C30.6192 31.9118 30.3588 31.8673 30.121 31.7616L25.2601 29.6022C25.1608 30.3537 24.7918 31.0434 24.2217 31.543C23.6517 32.0426 22.9196 32.318 22.1616 32.3179H10.4429C9.61407 32.3179 8.81921 31.9886 8.23316 31.4026C7.64711 30.8165 7.31787 30.0217 7.31787 29.1929V19.8179C7.31787 18.9891 7.64711 18.1942 8.23316 17.6082C8.81921 17.0221 9.61407 16.6929 10.4429 16.6929H21.3804Z" fill="#00425A"/>
</svg>
