<svg width="43" height="43" viewBox="0 0 43 43" fill="none" xmlns="http://www.w3.org/2000/svg">
<path d="M31.5519 19.1654L29.9559 14.3774C29.7243 13.6803 29.279 13.0739 28.6832 12.6443C28.0873 12.2148 27.3712 11.9839 26.6367 11.9846H15.999C15.2645 11.9839 14.5484 12.2148 13.9525 12.6443C13.3567 13.0739 12.9114 13.6803 12.6799 14.3774L11.0839 19.1654C10.6594 19.343 10.297 19.6421 10.0421 20.025C9.78719 20.408 9.65118 20.8578 9.65118 21.3179V27.1512C9.65118 28.0122 10.1225 28.7566 10.8179 29.1614V31.8179C10.8179 32.1273 10.9408 32.4241 11.1596 32.6429C11.3784 32.8616 11.6751 32.9846 11.9845 32.9846H13.1512C13.4606 32.9846 13.7573 32.8616 13.9761 32.6429C14.1949 32.4241 14.3179 32.1273 14.3179 31.8179V29.4846H28.3179V31.8179C28.3179 32.1273 28.4408 32.4241 28.6596 32.6429C28.8784 32.8616 29.1751 32.9846 29.4845 32.9846H30.6512C30.9606 32.9846 31.2574 32.8616 31.4761 32.6429C31.6949 32.4241 31.8179 32.1273 31.8179 31.8179V29.1614C32.1718 28.9584 32.466 28.6657 32.6708 28.3128C32.8757 27.9599 32.9838 27.5593 32.9845 27.1512V21.3179C32.9845 20.8578 32.8485 20.408 32.5936 20.025C32.3387 19.6421 31.9763 19.343 31.5519 19.1654ZM15.999 14.3179H26.6355C27.1384 14.3179 27.584 14.6376 27.7427 15.1159L29.033 18.9846H13.6027L14.8919 15.1159C14.9693 14.8835 15.1179 14.6813 15.3166 14.5381C15.5153 14.3949 15.7541 14.3178 15.999 14.3179ZM13.7345 25.9846C13.5046 25.9845 13.277 25.9391 13.0646 25.8511C12.8523 25.763 12.6593 25.634 12.4968 25.4714C12.3343 25.3088 12.2055 25.1158 12.1175 24.9034C12.0296 24.6909 11.9844 24.4633 11.9845 24.2334C11.9846 24.0035 12.0299 23.7759 12.118 23.5635C12.206 23.3512 12.3351 23.1582 12.4977 22.9957C12.6603 22.8332 12.8533 22.7043 13.0657 22.6164C13.2781 22.5285 13.5058 22.4833 13.7357 22.4834C14.2 22.4835 14.6452 22.6681 14.9734 22.9965C15.3016 23.3249 15.4858 23.7703 15.4857 24.2346C15.4855 24.6988 15.3009 25.144 14.9725 25.4722C14.6441 25.8004 14.1988 25.9847 13.7345 25.9846ZM28.9012 25.9846C28.6713 25.9845 28.4437 25.9391 28.2313 25.8511C28.0189 25.763 27.826 25.634 27.6635 25.4714C27.501 25.3088 27.3721 25.1158 27.2842 24.9034C27.1963 24.6909 27.1511 24.4633 27.1512 24.2334C27.1513 24.0035 27.1966 23.7759 27.2847 23.5635C27.3727 23.3512 27.5017 23.1582 27.6643 22.9957C27.8269 22.8332 28.02 22.7043 28.2324 22.6164C28.4448 22.5285 28.6725 22.4833 28.9024 22.4834C29.3666 22.4835 29.8118 22.6681 30.14 22.9965C30.4682 23.3249 30.6525 23.7703 30.6524 24.2346C30.6522 24.6988 30.4676 25.144 30.1392 25.4722C29.8108 25.8004 29.3655 25.9847 28.9012 25.9846Z" fill="#00425A"/>
</svg>
