<svg width="30" height="30" viewBox="0 0 30 30" fill="none" xmlns="http://www.w3.org/2000/svg">
<path d="M20.3369 3.04565C24.1044 3.04565 26.2022 5.21663 26.2022 8.93656V21.5355C26.2022 25.3165 24.1044 27.4387 20.3369 27.4387H10.115C6.40725 27.4387 4.24847 25.3165 4.24847 21.5355V8.93656C4.24847 5.21663 6.40725 3.04565 10.115 3.04565H20.3369ZM10.4443 19.8036C10.0784 19.7671 9.7247 19.9378 9.52956 20.2549C9.33441 20.5598 9.33441 20.9623 9.52956 21.2794C9.7247 21.5843 10.0784 21.7673 10.4443 21.7185H20.0064C20.493 21.6697 20.8601 21.2538 20.8601 20.7672C20.8601 20.2671 20.493 19.8524 20.0064 19.8036H10.4443ZM20.0064 14.2408H10.4443C9.91863 14.2408 9.49297 14.6689 9.49297 15.1934C9.49297 15.7178 9.91863 16.1447 10.4443 16.1447H20.0064C20.5308 16.1447 20.9577 15.7178 20.9577 15.1934C20.9577 14.6689 20.5308 14.2408 20.0064 14.2408ZM14.0898 8.71703H10.4443V8.72922C9.91863 8.72922 9.49297 9.1561 9.49297 9.68055C9.49297 10.205 9.91863 10.6319 10.4443 10.6319H14.0898C14.6155 10.6319 15.0424 10.205 15.0424 9.66713C15.0424 9.1439 14.6155 8.71703 14.0898 8.71703Z" fill="#00425A"/>
</svg>
