<svg width="30" height="30" viewBox="0 0 30 30" fill="none" xmlns="http://www.w3.org/2000/svg">
<path d="M16.0999 2.67542C17.0223 2.67542 17.8574 3.18767 18.3186 3.94385C18.5429 4.30975 18.6925 4.76102 18.6551 5.23668C18.6302 5.60257 18.7424 5.96847 18.9418 6.30997C19.5775 7.34667 20.9859 7.73696 22.0828 7.15153C23.3168 6.44413 24.8748 6.87101 25.5853 8.07846L26.4204 9.51765C27.1433 10.7251 26.7444 12.2741 25.498 12.9693C24.4385 13.5913 24.0646 14.9695 24.7003 16.0184C24.8997 16.3477 25.1241 16.6282 25.4731 16.799C25.9093 17.0307 26.2459 17.3966 26.4827 17.7625C26.9439 18.5187 26.9065 19.4456 26.4578 20.2628L25.5853 21.7263C25.1241 22.5069 24.264 22.9948 23.3791 22.9948C22.9428 22.9948 22.4567 22.8728 22.0579 22.6289C21.7338 22.4215 21.3599 22.3484 20.961 22.3484C19.727 22.3484 18.6925 23.3607 18.6551 24.5681C18.6551 25.9707 17.5084 27.0684 16.075 27.0684H14.3799C12.934 27.0684 11.7873 25.9707 11.7873 24.5681C11.7624 23.3607 10.7278 22.3484 9.49385 22.3484C9.08253 22.3484 8.7086 22.4215 8.39699 22.6289C7.99813 22.8728 7.49956 22.9948 7.07577 22.9948C6.17834 22.9948 5.31831 22.5069 4.85713 21.7263L3.99709 20.2628C3.53591 19.47 3.51098 18.5187 3.97216 17.7625C4.17159 17.3966 4.54552 17.0307 4.96931 16.799C5.31831 16.6282 5.54266 16.3477 5.75456 16.0184C6.37777 14.9695 6.00384 13.5913 4.94438 12.9693C3.71041 12.2741 3.31155 10.7251 4.02202 9.51765L4.85713 8.07846C5.58006 6.87101 7.12563 6.44413 8.37206 7.15153C9.45645 7.73696 10.8649 7.34667 11.5006 6.30997C11.7 5.96847 11.8122 5.60257 11.7873 5.23668C11.7624 4.76102 11.8995 4.30975 12.1363 3.94385C12.5975 3.18767 13.4326 2.69981 14.3425 2.67542H16.0999ZM15.2399 11.4325C13.283 11.4325 11.7 12.9693 11.7 14.8841C11.7 16.799 13.283 18.3235 15.2399 18.3235C17.1968 18.3235 18.7424 16.799 18.7424 14.8841C18.7424 12.9693 17.1968 11.4325 15.2399 11.4325Z" fill="#00425A"/>
</svg>
